/* XPM */
static char * noiz2sa_xpm[] = {
"32 32 12 1",
" 	c None",
".	c #E3E3EF",
"+	c #ACACDF",
"@	c #9191DF",
"#	c #D0D0F7",
"$	c #5C5CDF",
"%	c #A0A0EF",
"&	c #7777DF",
"*	c #C7C7DF",
"=	c #7E7EE7",
"-	c #F1F1F7",
";	c #BABADF",
"                                ",
"                                ",
"      .....                     ",
"      +@@@+                     ",
"      +@@@+                     ",
"      +@@@+             #$$#    ",
"      +@@@+             %&&%    ",
"    ..*****........     $&$     ",
"    +@@@@@@@@@@@@@+     =$=     ",
"    +@@@@@@@@@@@@@+             ",
"    +@@@@@@@@@@@@@+             ",
"    +@@@@@@@@@@@@@+             ",
"    +@@@@@@@@@@@@@+             ",
"    +@@@@@@@@@@@@@+     #%#     ",
"    +@@@@@@@@@@@@@+....-$&$     ",
"    +@@@@@@@@@@@@@+@@@@.$&$     ",
"    +@@@@@@@@@@@@@+@@@@.=$=     ",
"    +@@@@@@@@@@@@@+@@@@.        ",
"    +@@@@@@@@@@@@@+@@@@.        ",
"  ..;++@@@@@@@@@@@+....-        ",
"  +@@@+@@@@@@@@@@@+             ",
"  +@@@+@@@@@@@@@@@+             ",
"  +@@@+............    #$$#     ",
"  +@@@+                %&&%     ",
"  .....                %&&%     ",
"                       %&&%     ",
"                        %%      ",
"                                ",
"                                ",
"                                ",
"                                ",
"                                "};
